<?xml version="1.0" encoding="UTF-8"?>
<svg id="Layer_1" xmlns="http://www.w3.org/2000/svg" version="1.1" viewBox="0 0 785.23 627.73">
  <!-- Generator: Adobe Illustrator 29.6.1, SVG Export Plug-In . SVG Version: 2.1.1 Build 9)  -->
  <defs>
    <style>
      .st0 {
        fill: #b08e21;
      }
    </style>
  </defs>
  <path class="st0" d="M499.89,426.34c-78.84,80.93-204.27,111.28-303.74,47.38-102.91-66.11-127.1-206.56-47.66-301.29,2.34-2.79,10.14-12.09,12.7-13.3,7.59-3.6,16.89.53,17.22,9.36.26,6.95-10.64,15.46-14.91,20.94-85.83,110.12-23.88,266.46,111.93,292.01,86.19,16.21,162.9-19.8,219.55-82.52,67.26-74.47,108.95-168.2,136.48-264.01-5.97,2.25-11.58,5.61-17.47,8.02-41.57,16.93-83.94,24.42-129.06,22.03-90.86-4.82-149.66-68.59-247.73-29.81-6.59,2.61-23.28,12.54-28.27,12.81-10.08.55-16.26-10.04-9.92-18,3.99-5.01,29.41-16,36.48-18.52,33.98-12.15,70.75-13.46,106.19-7.23,41.86,7.36,79.52,28.94,121.55,35.45,58.76,9.11,114.21-2.74,166.99-28.51,16.97-.5,27.56,12.27,23.97,28.99s-12.13,38.7-17.97,55.02c-30.64,85.62-72.56,165.73-136.33,231.18Z"/>
  <path class="st0" d="M396.14,382.57c-3.19,3.19-16.1,10.54-20.64,12.86-44.96,22.93-103.89,18.82-141.03-17.01-86.68-83.61,12.04-228.02,127.03-166.03,38.41,20.7,57.15,33.87,104.23,26.27,9.09-1.47,17.07-7.35,26.26-.75,7.98,5.73,7.12,13.64,3.68,21.69-9.56,22.35-38.68,65.77-55.67,83.33-1.5,1.55-4.5,5.02-6.14,5.86-10.57,5.43-20.74-5.17-15.58-15.59,2.53-5.11,14.77-17.04,19.18-22.81,11.44-14.97,20.91-31.33,30.54-47.49l-1.03-1.98c-28.18,5.57-57.51.95-83.69-10.29-20.03-8.6-35.79-23.12-57.59-28.41-75.52-18.34-130.72,69.78-83.18,131.18,30.83,39.82,86.85,41.7,128.64,18.7,5.85-3.22,11.78-10.1,18.75-9.13,9.21,1.29,12.81,13.05,6.25,19.62Z"/>
  <path class="st0" d="M307.25,246.19c70.89-7.81,81.82,102.29,10.71,107.71-72.33,5.51-79.49-100.13-10.71-107.71ZM308.26,269.19c-39.06,4.75-32.79,65.36,6.7,62.72,41.12-2.75,38.04-68.16-6.7-62.72Z"/>
  <path class="st0" d="M292.22,546.15c57.07-8.88,60.52,77.06,5.79,74.76-45.38-1.91-46.39-68.44-5.79-74.76ZM288.83,593.56c10.82,11.47,30.84-.05,25.12-15.63-3.01-8.18-10.55-10.48-18.74-8.79-10.3,2.13-13.02,17.37-6.38,24.42Z"/>
  <path class="st0" d="M711.21,153.15c56.62-9.36,61.28,77.1,5.79,74.76-44.89-1.89-46.38-68.05-5.79-74.76ZM714.18,176.12c-5.46,1.23-9.26,6.89-9.72,12.29-1.66,19.56,26.21,23.06,29.4,4.3,2.06-12.14-8.23-19.18-19.68-16.6Z"/>
  <path class="st0" d="M677.24,248.17c52.77-7.63,60.74,69.22,10.64,74.63-48.69,5.26-55.9-68.09-10.64-74.63ZM682.24,270.1c-19.83,2.75-15.9,34.69,6.53,29.59,16.53-3.76,12.19-32.19-6.53-29.59Z"/>
  <path class="st0" d="M544.23,33.16c51.63-6.58,57.27,69.57,10.62,74.62-51.09,5.53-58.11-68.57-10.62-74.62ZM545.21,56.15c-13.26,2.45-15.07,23.74.06,28.48,22.98,7.19,27.6-33.6-.06-28.48Z"/>
  <path class="st0" d="M102.89,124.46c-16.98-15.22-15.48-45.35,3.26-58.37s46.45-6.95,56.05,13.59c18.07,38.65-28.42,72.48-59.32,44.78ZM117.82,107.57c14.27,14.28,36.32-9.12,20.69-22.19s-33.75,9.12-20.69,22.19Z"/>
  <path class="st0" d="M55.23,366.17c54.19-6.72,57.19,79.63.76,74.73-43.38-3.77-44.77-69.27-.76-74.73ZM56.2,389.15c-20.07,3.68-9.95,39.05,11.32,27.31,14.58-8.05,7.34-30.73-11.32-27.31Z"/>
  <path class="st0" d="M169.83,525.26c36.37-36.25,90.54,23.18,50.66,56.16-36.66,30.32-84.57-22.36-50.66-56.16ZM184.79,542.22c-15.48,18.05,17.95,37.17,25.73,15.24,5.68-16.02-15.46-27.22-25.73-15.24Z"/>
  <path class="st0" d="M19.83,273.26c33.35-33.35,87.48,15.32,55.16,51.66-34.98,39.33-90.57-16.25-55.16-51.66ZM44.23,285.13c-18.99,2.75-15.81,34.18,6.51,29.55,16.52-3.43,13.37-32.43-6.51-29.55Z"/>
  <path class="st0" d="M31.92,161.33c16.34-18.96,50.7-14.72,61.72,7.91,16.69,34.27-20,68.79-52.87,49.87-20.58-11.85-24.09-40.1-8.86-57.77ZM57.21,172.15c-17.56,2.87-15.48,31.11,4.47,29.55s16.86-33.04-4.47-29.55Z"/>
  <path class="st0" d="M734.23,51.17c50.03-6.75,58.85,69.42,10.62,74.62-52.01,5.6-57.08-68.35-10.62-74.62ZM735.2,74.14c-20.6,4.28-7.92,40,12.23,27.22,14.34-9.1,5.79-30.96-12.23-27.22Z"/>
  <path class="st0" d="M633.23,340.17c56.08-7.67,59.09,75.64,5.9,74.67-46.3-.84-48.18-68.89-5.9-74.67ZM639.28,362.14c-18.45,1.13-18.06,27.17-2.25,29.7,23.19,3.71,23.51-31.01,2.25-29.7Z"/>
  <path class="st0" d="M645.25,7.19c56.55-6.82,56.78,74.91,5.72,74.8-45.47-.1-50.56-69.39-5.72-74.8ZM649.26,29.15c-18.97,2.33-16.19,32.81,4.65,29.69,19.09-2.86,14.89-32.09-4.65-29.69Z"/>
  <path class="st0" d="M222.25,7.19c56.64-6.83,56.69,73.68,7.66,74.75-47.5,1.04-52.38-69.36-7.66-74.75ZM226.22,29.14c-15.74,2.49-17.23,26.17-1.02,29.54,23.87,4.96,24.25-33.21,1.02-29.54Z"/>
  <path class="st0" d="M566.21,423.14c57.08-9.56,61.51,74.55,8.76,74.56-47.52,0-48.75-67.86-8.76-74.56ZM573.27,445.12c-19.55,1.92-16.75,31.21,2.69,29.81,19.39-1.4,17.74-31.81-2.69-29.81Z"/>
  <path class="st0" d="M437.25,25.19c53.3-6.19,57.09,70.28,9.6,74.59-50.04,4.54-56-69.2-9.6-74.59ZM453.16,73.59c14.66-13.29-7.29-37.04-21.23-21.73-13.77,15.12,7.84,33.87,21.23,21.73Z"/>
  <path class="st0" d="M528.12,504.26c17.65,16.57,15.3,47.6-5.96,59.84-30.78,17.73-66.39-10.27-55.47-44.47,8.12-25.43,42.05-33.55,61.42-15.37ZM500.24,517.1c-18.4,2.54-16.41,30.62,2.68,29.83,20.91-.86,17.77-32.66-2.68-29.83Z"/>
  <path class="st0" d="M111.31,454.16c51.75-1.91,52.73,79.64-3.32,74.74-44.5-3.89-42.79-73.03,3.32-74.74ZM102.79,480.23c-12.05,10.34-.85,31.44,15.24,25.73,21.93-7.79,2.8-41.2-15.24-25.73Z"/>
  <path class="st0" d="M330.25,7.19c51.03-6.29,59.1,62.4,16.27,73.27-52.19,13.24-65.21-67.24-16.27-73.27ZM334.22,29.14c-15.89,2.51-16.8,26.26-1.02,29.54,23.77,4.94,24.47-33.24,1.02-29.54Z"/>
  <path class="st0" d="M399.25,541.19c49.82-4.75,56.06,70.9,7.71,74.7-51.96,4.08-54.91-70.2-7.71-74.7ZM399.2,564.14c-15.17,3.16-14.72,28.43,2.92,29.69,21.63,1.55,20.93-34.66-2.92-29.69Z"/>
  <path class="st0" d="M424.76,401.63c-6.67-6.67,2.52-18.62,10.66-12.16,8.75,6.95-3.34,19.49-10.66,12.16Z"/>
  <path class="st0" d="M194.18,222.12c14.78-4.42,14.78,18.99,0,14.57-6.02-1.8-6.04-12.77,0-14.57Z"/>
  <path class="st0" d="M171.74,261.16c6.34-6.9,18.74,2.42,12.18,10.69-7.06,8.9-18.93-3.35-12.18-10.69Z"/>
  <path class="st0" d="M199.19,375.12c11.77-2.7,12.89,12.39,5.58,14.57-11.92,3.56-15.26-12.36-5.58-14.57Z"/>
  <path class="st0" d="M504.79,287.23c11.06-10.12,20.39,13.85,5.16,13.71-6.97-.06-10.12-9.17-5.16-13.71Z"/>
  <path class="st0" d="M356.18,431.12c15.46-4.61,14.3,17.94,1.06,14.55-7.08-1.81-7.32-12.69-1.06-14.55Z"/>
  <path class="st0" d="M392.18,193.11c12.01-3.63,14.58,14.03,3.55,15.62-8.7,1.26-11.71-13.16-3.55-15.62Z"/>
  <path class="st0" d="M234.22,206.65c-7.09,6.51-19.69-5.03-10.69-12.18,8.27-6.57,17.59,5.84,10.69,12.18Z"/>
  <path class="st0" d="M270.98,174.35c8.94,0,10.07,12.97,3.56,15.11-13.86,4.56-15.1-15.11-3.56-15.11Z"/>
  <path class="st0" d="M180.21,339.08c10.78-2.2,13.89,14.5,2.53,15.62-9.96.98-11.11-13.86-2.53-15.62Z"/>
  <path class="st0" d="M180.21,313.65c-6.48,6.9-19.05-2.52-12.2-10.71,7.59-9.08,18.51,4,12.2,10.71Z"/>
  <path class="st0" d="M265.21,427.12c10.68-1.02,11.8,14.74,1.67,15.79s-11.73-14.82-1.67-15.79Z"/>
  <path class="st0" d="M523.19,249.13c15.27-3.63,13.57,18.64,0,14.57-5.48-1.64-7.11-12.88,0-14.57Z"/>
  <path class="st0" d="M441.17,221.62c-3.25,4.05-12.89,3.27-13.75-3.16-1.72-12.81,14.4-12.49,15.11-3.03.15,1.98-.07,4.59-1.36,6.2Z"/>
  <path class="st0" d="M238.19,405.21c7.36,5.92-1.63,18.87-10.29,12.77-7.61-5.37,1.34-19.97,10.29-12.77Z"/>
  <path class="st0" d="M398.19,412.12c14.14-3.21,14.15,17.78,0,14.58-6.6-1.49-6.52-13.1,0-14.58Z"/>
  <path class="st0" d="M460.21,356.12c10.08-.99,11.57,14.76,1.67,15.79s-12.13-14.76-1.67-15.79Z"/>
  <path class="st0" d="M311.21,435.08c10.64-2.19,13.01,14.62,2.53,15.62-9.71.93-12.19-13.63-2.53-15.62Z"/>
  <path class="st0" d="M476.19,209.12c14.14-3.21,14.15,17.78,0,14.58-6.6-1.49-6.52-13.1,0-14.58Z"/>
  <path class="st0" d="M310.19,170.12c14.14-3.21,14.15,17.78,0,14.58-6.6-1.49-6.52-13.1,0-14.58Z"/>
  <path class="st0" d="M517.73,210.17c7.15-6.7,19.55,6.16,10.32,12.81-7.96,5.74-17.16-6.4-10.32-12.81Z"/>
  <path class="st0" d="M352.18,178.12c14.07-4.21,14.91,17.62,1.02,14.6-7.45-1.62-7.15-12.76-1.02-14.6Z"/>
  <path class="st0" d="M486.21,323.12c10.4-.99,11.03,14.83,1.67,15.78-10.47,1.06-11.6-14.84-1.67-15.78Z"/>
</svg>