<?xml version="1.0" encoding="UTF-8"?>
<svg id="Layer_2" xmlns="http://www.w3.org/2000/svg" version="1.1" viewBox="0 0 1298.59 532.8">
  <!-- Generator: Adobe Illustrator 29.6.1, SVG Export Plug-In . SVG Version: 2.1.1 Build 9)  -->
  <defs>
    <style>
      .st0 {
        fill: none;
        stroke: #b08e21;
        stroke-linecap: round;
        stroke-linejoin: round;
        stroke-width: 3px;
      }

      .st1 {
        fill: #b08e21;
      }
    </style>
  </defs>
  <g>
    <path class="st0" d="M63.13,377.69l-2.82-13.84c-29.93-22.02-34.73-62.68-34.73-62.68"/>
    <path class="st0" d="M135.13,380.23c-8.75-16.94-38.96-47.15-63.53-53.36-24.56-6.21-50.82-28.24-50.82-28.24l45.18,4.52"/>
    <path class="st0" d="M145.58,355.95c-38.12-53.93-82.45-64.38-82.45-64.38l-4.75,10.82"/>
    <path class="st0" d="M173.53,361.03c-25.13-53.08-85.27-71.44-85.27-71.44l-1.69,4.52"/>
    <line class="st0" x1="63.13" y1="291.57" x2="93.63" y2="295.53"/>
    <path class="st0" d="M200.92,374.02c-11.01-77.08-84.42-84.42-84.42-84.42l-2.26,3.95"/>
    <path class="st0" d="M88.26,289.6c-.22.91,37.57-.91,69.32,25.41"/>
    <polygon class="st0" points="252.03 262.8 230 254.59 213.63 259.81 213.63 204.61 232.83 186.54 252.03 204.61 252.03 262.8"/>
    <line class="st0" x1="213.63" y1="204.61" x2="252.03" y2="204.61"/>
    <line class="st0" x1="213.63" y1="222.96" x2="252.03" y2="222.96"/>
    <circle class="st0" cx="230" cy="235.95" r="8.75"/>
    <polygon class="st0" points="296.64 279.43 230 254.59 152.07 279.43 296.64 279.43"/>
    <rect class="st0" x="152.07" y="289.6" width="144.56" height="5.93"/>
    <polyline class="st0" points="198.95 365.69 296.64 365.69 296.64 375.55 200.92 375.55"/>
    <rect class="st0" x="159.39" y="279.43" width="129.94" height="10.16"/>
    <rect class="st0" x="218.71" y="295.53" width="11.29" height="7.06"/>
    <rect class="st0" x="278.03" y="295.53" width="11.29" height="7.06"/>
    <rect class="st0" x="258.26" y="295.53" width="11.29" height="7.06"/>
    <rect class="st0" x="238.48" y="295.53" width="11.29" height="7.06"/>
    <rect class="st0" x="159.39" y="295.53" width="11.29" height="7.06"/>
    <rect class="st0" x="198.94" y="295.53" width="11.29" height="7.06"/>
    <rect class="st0" x="179.16" y="295.53" width="11.29" height="7.06"/>
    <g>
      <rect class="st0" x="220.07" y="302.59" width="8.24" height="63.11"/>
      <rect class="st0" x="279.56" y="302.59" width="8.24" height="63.11"/>
      <rect class="st0" x="259.73" y="302.59" width="8.24" height="63.11"/>
      <rect class="st0" x="239.9" y="302.59" width="8.24" height="63.11"/>
      <polygon class="st0" points="168.82 313.17 160.58 306.96 160.58 302.59 168.82 302.59 168.82 313.17"/>
      <rect class="st0" x="200.24" y="302.59" width="8.24" height="63.11"/>
      <polyline class="st0" points="180.41 324.84 180.41 302.59 188.65 302.59 188.65 336.47"/>
    </g>
    <polygon class="st0" points="348.59 237.49 299.48 237.49 324.04 212.94 348.59 237.49"/>
    <polygon class="st0" points="346.46 302.74 321.38 302.74 333.92 284.52 346.46 302.74"/>
    <polygon class="st0" points="399.09 301.69 383.27 301.69 391.18 280.19 399.09 301.69"/>
    <circle class="st0" cx="324.04" cy="251.76" r="7.06"/>
    <path class="st0" d="M376.26,239.1c0-3.9-3.16-7.06-7.06-7.06s-7.06,3.16-7.06,7.06v27.91h14.12v-27.91Z"/>
    <path class="st0" d="M349.51,279.4c0-1.34-1.36-2.42-3.04-2.42s-3.04,1.08-3.04,2.42v9.56h6.09v-9.56Z"/>
    <path class="st0" d="M379.31,279.4c0-1.34-1.36-2.42-3.04-2.42s-3.04,1.08-3.04,2.42v9.56h6.09v-9.56Z"/>
    <path class="st0" d="M364.41,279.4c0-1.34-1.36-2.42-3.04-2.42s-3.04,1.08-3.04,2.42v9.56h6.09v-9.56Z"/>
    <path class="st0" d="M374.29,330.38c0-7.24-7.08-13.11-15.81-13.11s-15.81,5.87-15.81,13.11v51.83h31.62v-51.83Z"/>
    <path class="st0" d="M434.29,330.38c0-7.24-7.08-13.11-15.81-13.11s-15.81,5.87-15.81,13.11v51.83h31.62v-51.83Z"/>
    <path class="st0" d="M425.54,239.1c0-3.9-3.16-7.06-7.06-7.06s-7.06,3.16-7.06,7.06v27.91h14.12v-27.91Z"/>
    <rect class="st0" x="299.48" y="237.49" width="49.11" height="29.52"/>
    <polygon class="st0" points="436.43 204.9 400.54 204.9 418.48 184 436.43 204.9"/>
    <rect class="st0" x="400.54" y="204.9" width="35.89" height="25.12"/>
    <line class="st0" x1="411.42" y1="246.68" x2="348.59" y2="246.68"/>
    <line class="st0" x1="341.12" y1="230.02" x2="418.48" y2="230.02"/>
    <polygon class="st0" points="488.38 237.49 537.48 237.49 512.93 212.94 488.38 237.49"/>
    <circle class="st0" cx="512.93" cy="251.76" r="7.06"/>
    <path class="st0" d="M460.7,239.1c0-3.9,3.16-7.06,7.06-7.06s7.06,3.16,7.06,7.06v27.91h-14.12v-27.91Z"/>
    <rect class="st0" x="488.38" y="237.49" width="49.11" height="29.52" transform="translate(1025.86 504.5) rotate(-180)"/>
    <line class="st0" x1="425.54" y1="246.68" x2="488.38" y2="246.68"/>
    <line class="st0" x1="495.85" y1="230.02" x2="418.48" y2="230.02"/>
    <polyline class="st0" points="336.98 288.96 382.33 288.96 382.33 301.69"/>
    <g>
      <path class="st0" d="M406.63,279.4c0-1.34-1.36-2.42-3.04-2.42s-3.04,1.08-3.04,2.42v9.56h6.09v-9.56Z"/>
      <path class="st0" d="M436.43,279.4c0-1.34-1.36-2.42-3.04-2.42s-3.04,1.08-3.04,2.42v9.56h6.09v-9.56Z"/>
      <path class="st0" d="M421.53,279.4c0-1.34-1.36-2.42-3.04-2.42s-3.04,1.08-3.04,2.42v9.56h6.09v-9.56Z"/>
    </g>
    <rect class="st0" x="316.98" y="302.59" width="203.01" height="6.59" rx="3.3" ry="3.3"/>
    <rect class="st0" x="325.06" y="309.18" width="186.84" height="73.03"/>
    <polygon class="st0" points="490.5 302.74 515.59 302.74 503.05 284.52 490.5 302.74"/>
    <polygon class="st0" points="437.87 301.69 453.7 301.69 445.78 280.19 437.87 301.69"/>
    <path class="st0" d="M487.46,279.4c0-1.34,1.36-2.42,3.04-2.42s3.04,1.08,3.04,2.42v9.56h-6.09v-9.56Z"/>
    <path class="st0" d="M457.66,279.4c0-1.34,1.36-2.42,3.04-2.42s3.04,1.08,3.04,2.42v9.56h-6.09v-9.56Z"/>
    <path class="st0" d="M472.56,279.4c0-1.34,1.36-2.42,3.04-2.42s3.04,1.08,3.04,2.42v9.56h-6.09v-9.56Z"/>
    <path class="st0" d="M462.68,330.38c0-7.24,7.08-13.11,15.81-13.11,8.73,0,15.81,5.87,15.81,13.11v51.83h-31.62v-51.83Z"/>
    <polyline class="st0" points="499.99 288.96 454.63 288.96 454.63 301.69"/>
    <line class="st0" x1="394.41" y1="288.96" x2="442.56" y2="288.96"/>
    <line class="st0" x1="348.59" y1="267.01" x2="488.38" y2="267.01"/>
    <rect class="st0" x="299.48" y="267.01" width="238" height="115.2"/>
    <line class="st0" x1="436.43" y1="209.13" x2="453.56" y2="209.13"/>
    <rect class="st0" x="453.56" y="202.07" width="6.79" height="27.95"/>
    <line class="st0" x1="398.49" y1="209.13" x2="381.36" y2="209.13"/>
    <rect class="st0" x="374.57" y="202.07" width="6.79" height="27.95" transform="translate(755.92 432.09) rotate(-180)"/>
    <path class="st0" d="M562.08,77.53c-11.31,0-20.47,6.66-20.47,14.87h40.95c0-8.21-9.17-14.87-20.47-14.87Z"/>
    <polyline class="st0" points="541.61 92.4 545.67 382.21 578.05 382.21 583.7 9.41"/>
    <polyline class="st0" points="560.54 382.21 553.96 273.69 567.13 256.37 562.65 92.4 556.85 92.4 558.1 202.07 543.41 220.99"/>
    <rect class="st0" x="587.09" y="133.65" width="151.55" height="248.56"/>
    <polygon class="st0" points="751.81 382.21 738.63 382.21 738.63 124.17 759.89 124.17 759.89 148.7 751.81 149.08 751.81 382.21"/>
    <line class="st0" x1="594.24" y1="152.47" x2="684.97" y2="152.47"/>
    <line class="st0" x1="594.24" y1="166.4" x2="658.24" y2="166.4"/>
    <line class="st0" x1="594.24" y1="176.94" x2="623.04" y2="176.94"/>
    <line class="st0" x1="686.85" y1="291.25" x2="596.12" y2="291.25"/>
    <line class="st0" x1="686.85" y1="277.32" x2="622.85" y2="277.32"/>
    <line class="st0" x1="686.85" y1="266.78" x2="658.05" y2="266.78"/>
    <rect class="st0" x="697.77" y="164.14" width="40.87" height="10.92"/>
    <rect class="st0" x="697.77" y="309.18" width="40.87" height="10.92"/>
    <rect class="st0" x="697.77" y="272.92" width="40.87" height="10.92"/>
    <rect class="st0" x="697.77" y="236.66" width="40.87" height="10.92"/>
    <rect class="st0" x="697.77" y="200.4" width="40.87" height="10.92"/>
    <polyline class="st0" points="1070.1 382.21 1070.1 336.19 1055.79 309.18 1039.98 326.4 1006.47 291.25 966.57 306.45 934.94 253.19 910.85 272.92 891.27 203.29 867.18 271.06 822.38 205.86 751.81 242.12"/>
    <polyline class="st0" points="874.71 382.21 873.96 280.47 888.53 229.03 908.1 298.66 932.2 278.93 963.82 332.19 1003.73 316.99 1037.23 352.14 1053.04 334.92 1063.13 353.96 1062.19 382.21"/>
    <polyline class="st0" points="861.53 380.61 863.41 281.6 822.38 222.49 759.89 260.52 759.89 377.6"/>
    <path class="st0" d="M1036,322.23c12.26-29.47,47.35-44.38,98.39-37.4,51.03,6.98,88.86,38.51,84.5,70.42l-.84,25.36"/>
    <path class="st0" d="M1039.98,326.4c14.14-25.9,46.57-38.12,94.41-31.57,51.03,6.98,88.86,38.51,84.5,70.42l-.84,15.36"/>
    <polyline class="st0" points="1070.1 353.13 1200.73 357.16 1241.01 358.4"/>
    <line class="st0" x1="1200.73" y1="380.61" x2="1200.73" y2="357.16"/>
    <polyline class="st0" points="1091.18 300.05 1110.38 347.48 1134.85 302.3 1150.66 347.48 1164.59 321.5"/>
    <polyline class="st0" points="1157.44 305.62 1130.33 351.25 1113.39 300.05"/>
    <polyline class="st0" points="1277.81 382.21 62.41 382.21 60.31 323.04"/>
    <path class="st0" d="M481.15,126.92c.21-.88.33-1.8.33-2.75,0-6.55-5.31-11.86-11.86-11.86-4,0-7.54,1.99-9.68,5.03-3.52-.58-7.31-.93-11.26-1,.11-.64.18-1.28.18-1.94,0-8.47-9.06-15.33-20.23-15.33-9.58,0-17.59,5.05-19.68,11.82-.84-.1-1.7-.16-2.58-.16-8.06,0-14.8,4.22-16.63,9.9-2.66-.35-5.47-.54-8.38-.54-16.61,0-30.07,6.07-30.07,13.55s13.46,13.55,30.07,13.55c14.63,0,26.82-4.71,29.51-10.95.61-.13,1.22-.27,1.8-.45,4.11,6.57,18.01,11.4,34.53,11.4,19.75,0,35.77-6.91,35.77-15.44,0-1.69-.64-3.32-1.81-4.84Z"/>
    <path class="st0" d="M389.64,138.97c-9.93,4.15-20.39,1.77-23.36-5.33"/>
    <path class="st0" d="M701.13,65.13c-.09,0-.17.01-.26.01.17-.6.26-1.24.26-1.9,0-3.94-3.2-7.14-7.14-7.14s-7.14,3.2-7.14,7.14c0,.7.1,1.37.29,2-1.63-2.35-4.35-3.9-7.43-3.9-4.99,0-9.04,4.05-9.04,9.04,0,.3.02.59.04.89-1.02-.56-2.2-.89-3.44-.89-3.94,0-7.14,3.2-7.14,7.14s3.2,7.14,7.14,7.14c2.5,0,4.69-1.29,5.97-3.23,1.98,3.25,6.48,5.53,11.72,5.53s9.34-2.08,11.44-5.11c1.38.85,2.99,1.34,4.72,1.34,4.99,0,9.04-4.05,9.04-9.04s-4.05-9.04-9.04-9.04Z"/>
    <path class="st0" d="M966.94,124.72c-2.39-3.15-6.27-5.95-11.07-7.62-4.35-1.52-8.68-1.84-12.3-1.16-3.32-8.58-12.38-14.75-23.06-14.75s-20.51,6.7-23.45,15.85c-1.02-.21-2.07-.34-3.16-.34-6.18,0-11.42,3.64-13.21,8.66-17.78.43-31.95,8.18-31.95,17.67s15,17.69,33.51,17.69c16.23,0,29.77-6.1,32.85-14.19,5.12,6.97,19.35,11.99,36.11,11.99,21.07,0,38.15-7.92,38.15-17.69,0-7.17-9.2-13.34-22.41-16.12Z"/>
    <path class="st0" d="M860.56,144.68s4.19,11.5,27.33,8.23"/>
  </g>
  <g>
    <path class="st1" d="M333.07,423.35l-5.06,9.98c-3.77-2.58-7.4-4.49-10.87-5.73-3.48-1.24-7-1.86-10.57-1.86-4.17,0-7.99,1.02-11.46,3.05-3.48,2.04-6.16,4.94-8.04,8.71-1.99,3.77-3.4,8.26-4.24,13.47-.84,5.21-1.27,11.84-1.27,19.88,0,7.35.4,13.3,1.19,17.87.79,4.57,2.08,8.74,3.87,12.51,3.77,7.74,10.62,11.61,20.55,11.61,2.88,0,5.56-.32,8.04-.97,2.48-.64,5.16-1.66,8.04-3.05v-33.8h-22.78v-10.87h37.67v53c-3.67,1.49-6.95,2.73-9.83,3.72-2.88.99-5.58,1.79-8.11,2.38-2.53.6-4.94,1.02-7.22,1.27-2.28.25-4.67.37-7.15.37-27.4,0-41.09-17.91-41.09-53.75,0-18.86,3.4-33.08,10.2-42.66,6.8-9.58,16.85-14.37,30.15-14.37,5.06,0,9.8.74,14.22,2.23,4.42,1.49,9.01,3.82,13.77,7Z"/>
    <path class="st1" d="M388.15,523.1v-107.35h15.63v94.69l37.22,2.08v10.57h-52.85Z"/>
    <path class="st1" d="M467.81,523.1l30.37-107.35h18.76l30.37,107.35h-16.08l-9.83-37.22h-27.69l-9.83,37.22h-16.08ZM505.62,438.83l-9.53,36.18h22.93l-9.53-36.18c-.8-3.18-1.44-7.59-1.94-13.25-.2,2.88-.45,5.29-.74,7.22s-.7,3.95-1.19,6.03Z"/>
    <path class="st1" d="M637.83,418.28l-3.87,11.76c-3.18-1.39-6.13-2.41-8.86-3.05-2.73-.64-5.54-.97-8.41-.97-6.06,0-10.94,1.49-14.67,4.47-3.72,2.98-5.58,6.9-5.58,11.76,0,4.17,1.49,7.74,4.47,10.72.69.7,1.42,1.32,2.16,1.86.74.55,1.66,1.14,2.75,1.79,1.09.65,2.46,1.37,4.09,2.16,1.64.8,3.65,1.74,6.03,2.83,4.67,2.08,8.46,3.95,11.39,5.58,2.93,1.64,5.48,3.3,7.67,4.99,3.18,2.48,5.58,5.54,7.22,9.16,1.64,3.62,2.46,7.62,2.46,11.98,0,4.67-.87,8.91-2.61,12.73-1.74,3.82-4.19,7.15-7.37,9.97-3.18,2.83-6.97,5.01-11.39,6.55-4.42,1.54-9.26,2.31-14.52,2.31-4.27,0-8.51-.5-12.73-1.49-4.22-.99-9.11-2.63-14.67-4.91l4.17-12.06c4.47,2.18,8.51,3.8,12.13,4.84,3.62,1.04,7.17,1.56,10.65,1.56,6.05,0,10.97-1.61,14.74-4.84,3.77-3.22,5.66-7.37,5.66-12.43,0-2.28-.4-4.42-1.19-6.4-.8-1.98-1.99-3.67-3.57-5.06-1.69-1.39-3.72-2.75-6.1-4.09-2.38-1.34-5.81-3.05-10.27-5.14-2.98-1.39-5.43-2.58-7.37-3.57-1.94-.99-3.57-1.88-4.91-2.68-1.34-.79-2.48-1.59-3.42-2.38-.94-.79-1.96-1.74-3.05-2.83-2.48-2.58-4.39-5.53-5.73-8.86-1.34-3.32-2.01-6.87-2.01-10.65,0-4.47.82-8.51,2.46-12.13,1.64-3.62,3.97-6.75,7-9.38,3.03-2.63,6.65-4.66,10.87-6.1,4.22-1.44,8.86-2.16,13.92-2.16,3.57,0,7.15.35,10.72,1.04,3.57.7,7.49,1.74,11.76,3.13Z"/>
    <path class="st1" d="M756.2,423.35l-5.06,9.98c-3.77-2.58-7.4-4.49-10.87-5.73-3.48-1.24-7-1.86-10.57-1.86-4.17,0-7.99,1.02-11.46,3.05-3.48,2.04-6.16,4.94-8.04,8.71-1.99,3.77-3.4,8.26-4.24,13.47-.84,5.21-1.27,11.84-1.27,19.88,0,7.35.4,13.3,1.19,17.87.79,4.57,2.08,8.74,3.87,12.51,3.77,7.74,10.62,11.61,20.55,11.61,2.88,0,5.56-.32,8.04-.97,2.48-.64,5.16-1.66,8.04-3.05v-33.8h-22.78v-10.87h37.67v53c-3.67,1.49-6.95,2.73-9.83,3.72-2.88.99-5.58,1.79-8.11,2.38-2.53.6-4.94,1.02-7.22,1.27-2.28.25-4.67.37-7.15.37-27.39,0-41.09-17.91-41.09-53.75,0-18.86,3.4-33.08,10.2-42.66,6.8-9.58,16.85-14.37,30.15-14.37,5.06,0,9.8.74,14.22,2.23,4.42,1.49,9.01,3.82,13.77,7Z"/>
    <path class="st1" d="M808.45,469.5c0-17.77,3.28-31.41,9.83-40.94,6.55-9.53,15.93-14.29,28.14-14.29s21.74,4.76,28.29,14.29c6.55,9.53,9.83,23.18,9.83,40.94s-3.28,31.56-9.83,41.09c-6.55,9.53-15.98,14.29-28.29,14.29s-21.59-4.76-28.14-14.29c-6.55-9.53-9.83-23.23-9.83-41.09ZM846.42,425.73c-6.95,0-12.28,3.8-16,11.39-3.72,7.59-5.58,18.39-5.58,32.38s1.86,24.92,5.58,32.46c3.72,7.54,9.06,11.32,16,11.32s12.43-3.77,16.15-11.32c3.72-7.54,5.58-18.36,5.58-32.46s-1.86-24.91-5.58-32.46c-3.72-7.54-9.11-11.31-16.15-11.31Z"/>
    <path class="st1" d="M924.14,415.75h16.08l12.95,77.57c.3,1.99.54,4.22.74,6.7.2,2.48.4,5.11.6,7.89.4-3.08.79-5.86,1.19-8.34.4-2.48.79-4.56,1.19-6.25l16.38-77.57h14.74l16.53,77.57c.4,1.79.77,3.95,1.12,6.48.35,2.53.72,5.24,1.12,8.11.2-3.28.37-6.13.52-8.56.15-2.43.37-4.44.67-6.03l13.1-77.57h15.93l-20.25,107.35h-17.27l-17.12-77.12c-.2-1.09-.45-2.8-.74-5.14-.3-2.33-.6-4.99-.89-7.96-.1.5-.15.92-.15,1.26s-.1.67-.3.97c0,.5-.15,1.84-.45,4.02-.2,1.99-.37,3.48-.52,4.47-.15.99-.32,1.79-.52,2.38l-16.97,77.12h-17.42l-20.25-107.35Z"/>
  </g>
</svg>