<?xml version="1.0" encoding="UTF-8"?>
<svg id="Layer_2" xmlns="http://www.w3.org/2000/svg" version="1.1" viewBox="0 0 905.22 505.59">
  <!-- Generator: Adobe Illustrator 29.6.1, SVG Export Plug-In . SVG Version: 2.1.1 Build 9)  -->
  <defs>
    <style>
      .st0 {
        fill: #af8d2f;
      }

      .st1 {
        fill: none;
        stroke: #af8d2f;
        stroke-linecap: round;
        stroke-linejoin: round;
        stroke-width: 4px;
      }
    </style>
  </defs>
  <g>
    <path class="st1" d="M113.85,363c3.59-4,6.65-7.8,10.59-11.98,4.81-4.94,10.93-7.98,17.05-11.78.87-.76,1.31-1.52,1.75-2.28,2.19-7.22,3.93-14.44,6.12-21.66,2.62-1.9,6.12-1.14,9.18-2.28.44,0,.87.38,1.31.38.87.38.87,1.14,1.31,1.9,2.19,10.64,5.68,20.52,8.74,30.78-1.31,4.56-3.5,8.74-4.81,13.3,0,1.14,0,2.28-.46,3.58"/>
    <path class="st1" d="M97.07,363.05c-.6-2.9-1.91-5.56-1.91-8.61.44-1.9,3.5-2.28,5.11-3.18-1.26-.96-1.38.89,0,0-1.61-.99-3.8-1.76-5.11-3.28.44-4.94,3.5-9.88,4.81-14.82,3.06-2.28,6.99-3.8,10.49-6.08,3.93-3.42,5.25-7.98,6.99-12.16,0-4.94.87-10.26.87-15.2h10.05c.44,4.56-1.75,11.02,3.73,13.55l-3.7,3.86c2.6,1.58,5.22,2.35,8.28,1.21l3.93,3.42c2.62,1.9,5.25-1.9,7.74-2.62"/>
    <path class="st1" d="M165.42,332.38c.98-4.15,3.16-7.57,3.16-11.75.44-6.46,0-12.92,2.19-19,1.75-3.8,4.81-6.84,7.87-9.88-1.75-2.66-3.06-5.32-4.37-7.98-1.75-4.18,0-9.12-2.62-13.3-.87-1.52-3.93-1.52-4.81-4.18,1.75-3.8,3.5-7.6,3.93-11.78,0-.38.44-1.14.87-1.14,3.93-.76,7.43-.76,10.93-2.28,3.06-4.94,6.99-9.5,8.3-15.2.44-2.28-.87-4.18-.44-6.46,1.31-3.42,3.06-6.46,4.37-9.88,0-1.14.44-1.9.44-3.04,0-3.8-1.31-7.22-.44-11.02.87-3.8,2.19-7.22,2.62-11.02,0-1.52.44-3.04.44-4.56.87-2.66,3.5-4.56,5.69-6.35,2.52,2.93-1.04.98,0,0,2.18,3.3,6.11,5.58,7.86,9.39,2.19,4.56,2.62,9.5,4.37,14.06.87,2.28,2.62,4.18,3.5,6.46,2.19,5.7,3.5,11.02,4.37,17.1,2.62,14.44,6.99,28.12,16.61,39.9.44,2.28-1.31,4.56-1.75,6.84-.87,4.94,3.06,8.36,4.81,12.54-3.06,16.34-5.25,32.3-8.3,48.64,1.75,4.94,3.5,9.88,5.68,14.82,1.31,3.04,1.75,6.46,2.85,9.66"/>
    <polyline class="st1" points="220.22 214.47 223.55 204.81 235.4 195.79 240.21 192.9 240.95 156.2 246.13 150.73 248.72 143 243.91 129.48 248.72 117.57 256.87 114.68 266.13 102.44 267.24 88.6 273.16 84.74 273.9 73.8 271.31 67.36 276.12 61.56 279.45 40.32 285.75 38.07 295 47.4 294.26 61.56 290.56 66.4 296.49 67.04 300.93 63.49 303.52 64.78 301.67 73.48 305.37 75.41 306.48 97.94 312.04 115.96 315.74 124.66 324.99 132.39 325.36 136.57 322.4 141.71 324.62 151.05 324.62 157.81 330.55 176.48 328.7 185.17 334.99 195.79 332.77 213.82 329.44 223.15 332.4 234.74 328.7 245.69 334.62 254.7 340.91 262.42 338.69 275.3 340.91 301.37 356.83 314.89 365.35 330.34"/>
    <polyline class="st1" points="338.69 275.3 346.47 270.15 351.65 262.1 375.35 249.55 388.67 246.33 405.71 233.77 511.59 259.2 524.55 268.54 540.1 275.3 566.76 291.39 577.87 291.39 588.23 301.69"/>
    <polyline class="st1" points="375.35 249.55 373.49 232.49 369.05 195.79 364.98 171 367.2 151.37 363.87 130.12 371.27 108.89 373.12 86.03 371.27 77.98 382.38 44.51 380.9 37.1 386.08 24.22 390.16 16.83 396.82 12 402.74 13.61 404.22 23.58 410.52 27.45 416.44 41.61 426.07 46.76 427.92 53.84 427.92 58.99 433.1 62.53 437.18 72.51 436.81 76.37 443.1 93.11 450.13 103.09 447.54 107.6 450.5 119.83 456.8 125.62 460.13 140.11 466.05 146.23 471.24 167.79 470.87 174.55 473.83 178.73 477.9 206.41 476.42 221.54 471.98 238.6 469.02 244.4 478.27 245.36 493.45 250.83 498.26 256"/>
    <path class="st1" d="M378.29,363.11c7.08-5.62,17.14-4.87,25.88-6.76.87,0,1.75-.38,2.19-.76,2.19-3.42,5.25-6.08,7.43-9.5,0-6.08-.87-12.16,1.31-17.86,1.75-4.56,4.37-9.12,6.56-13.68s6.99-7.6,10.49-11.4c.44-.76,1.31-1.9,2.19-2.66.44-.38.44-.76.44-1.14-1.31-2.28-2.62-4.56-3.5-6.84l9.18-7.98c-.87-3.8-3.5-7.22-3.93-11.4,7.87-8.74,16.61-17.1,24.14-26.15"/>
    <polyline class="st1" points="383.12 359.85 380.16 351.26 374.98 351.26 374.98 341.61 388.67 330.34 394.23 319.07 405.79 308.13 419.03 306.2 424.87 310.41"/>
    <polyline class="st1" points="409.79 307.54 411.63 303.3 408.3 299.76 410.89 290.42 419.4 287.21 424.22 282.06 432.73 283.67 435.27 288.77"/>
    <polyline class="st1" points="490.12 284.31 518.63 297.19 557.13 301.69 570.83 312.32 616.74 317.46 630.07 333.02 634.51 362.21"/>
    <path class="st1" d="M504.56,309.42c14.13,10.83,28.12,21.47,41.67,32.87.87.76,1.75,1.14,2.62,1.52,3.06.76,5.68,1.52,8.74,2.28,11.8,4.18,23.17,7.98,34.97,12.16,7.87,3.04,16.17,3.42,24.21,5.56"/>
    <polyline class="st1" points="514.84 261.54 519.37 254.06 528.25 252.44 535.66 242.15 553.43 232.17 553.8 215.11 551.21 203.52 555.28 196.43 549.36 195.47 555.65 184.84 559.72 180.34 559.72 173.91 565.28 172.61 562.32 167.47 563.8 162 570.46 155.55 568.61 150.73 570.46 143.97 590.45 139.78 594.9 131.09 595.64 118.21 612.3 103.41 627.48 115 647.1 120.47 656.36 128.52 654.51 135.92 657.47 144.29 658.58 152.02 658.21 165.54 658.21 171.97 656.73 180.02 660.43 183.56 664.87 193.54 676.35 201.91 685.98 202.23 698.93 217.04"/>
    <polyline class="st1" points="689.65 206.43 693.01 202.55 691.16 196.76 694.49 194.5 693.75 189.36 699.67 186.13 702.64 191.93 709.67 202.23 710.04 208.99 716.34 216.4 721.89 227.02 731.52 233.45 741.51 247.62 746.32 250.51 755.21 265.96 760.76 273.69 763.36 278.84 774.46 283.67 789.27 298.8 799.64 311.03 806.67 325.19 808.15 331.95"/>
    <polyline class="st1" points="396.45 27.13 387.56 33.88 390.53 41.29 382.38 58.35 383.12 83.46 390.9 108.56 404.97 152.02 413.48 176.16 412.74 200.95 405.71 233.77"/>
    <polyline class="st1" points="437.18 142.68 443.47 182.91 451.99 219.61"/>
    <line class="st1" x1="249.47" y1="185.17" x2="267.24" y2="155.88"/>
    <polyline class="st1" points="258.72 155.88 267.61 142.68 284.64 144.93"/>
    <polyline class="st1" points="295 86.35 290.93 97.3 284.27 102.12 280.94 117.25 274.64 130.12"/>
    <polyline class="st1" points="195.41 263.71 202.44 273.69 200.96 290.75"/>
    <polyline class="st1" points="216.88 252.44 210.59 273.05 206.15 284.63 213.55 302.34 219.48 324.87 216.51 343.21"/>
    <polyline class="st1" points="702.27 264.99 693.38 259.2 665.98 251.15 648.58 234.42 631.92 228.31 618.96 216.07 600.08 195.79 594.53 174.87 588.23 193.22 580.83 208.67 577.5 225.4 578.24 243.11 582.68 259.2 595.27 271.44 593.79 293.32"/>
    <polyline class="st1" points="661.63 246.97 664.13 236.03 660.43 226.05 651.91 228.63 644.88 230.24 636.04 229.82"/>
  </g>
  <line class="st1" x1="19.9" y1="363.8" x2="885.32" y2="363.8"/>
  <g>
    <path class="st0" d="M159.04,464.73c0,9.59-2.86,17.13-8.59,22.62-5.72,5.49-14.22,8.24-25.48,8.24-6.05,0-11.52-.75-16.41-2.23-4.89-1.49-9.33-3.44-13.33-5.86l1.67-8.66c4.1,2.7,8.4,4.73,12.92,6.07,4.51,1.35,9.56,2.02,15.15,2.02,8.38,0,14.66-1.91,18.85-5.72,4.19-3.82,6.28-9.12,6.28-15.92,0-4.65-1.33-8.33-3.98-11.03s-5.98-4.96-9.98-6.77-8.31-3.44-12.92-4.89c-4.61-1.44-8.91-3.26-12.91-5.45s-7.33-4.98-9.98-8.38-3.98-7.98-3.98-13.75c0-3.91.65-7.56,1.95-10.96,1.3-3.4,3.28-6.35,5.93-8.87,2.65-2.51,6.03-4.47,10.12-5.86,4.09-1.4,8.94-2.09,14.52-2.09,5.12,0,9.94.49,14.45,1.47,4.51.98,8.63,2.35,12.36,4.12l-1.68,8.24c-4-1.68-7.98-2.98-11.94-3.91s-8.22-1.4-12.78-1.4-8.08.51-11.1,1.54c-3.03,1.03-5.52,2.4-7.47,4.12s-3.37,3.7-4.26,5.93c-.89,2.23-1.33,4.61-1.33,7.12,0,4.47,1.33,7.96,3.98,10.47,2.65,2.51,5.98,4.63,9.98,6.35s8.33,3.31,12.99,4.75c4.65,1.44,8.98,3.28,12.98,5.51,4,2.23,7.33,5.14,9.98,8.73,2.65,3.58,3.98,8.4,3.98,14.45h.03Z"/>
    <path class="st0" d="M242.82,400.78c-2.89-1.3-6.31-2.42-10.26-3.35-3.96-.93-8.12-1.4-12.5-1.4-5.96,0-11.15.75-15.57,2.23-4.42,1.49-8.08,3.96-10.96,7.4-2.89,3.44-5.03,7.98-6.42,13.61-1.4,5.63-2.09,12.59-2.09,20.87,0,8.84.72,16.24,2.16,22.2,1.44,5.96,3.63,10.75,6.56,14.38s6.61,6.21,11.03,7.75,9.66,2.3,15.71,2.3c4.47,0,8.56-.49,12.29-1.47,3.72-.98,7.17-2.3,10.33-3.98l1.54,7.96c-3.17,1.68-6.98,3.14-11.45,4.4s-9.08,1.89-13.82,1.89c-7.63,0-14.2-1.07-19.69-3.21-5.49-2.14-10.03-5.49-13.61-10.05s-6.24-10.31-7.96-17.24-2.58-15.24-2.58-24.92.86-17.15,2.58-23.81c1.72-6.65,4.4-12.15,8.03-16.48s8.21-7.52,13.75-9.56c5.54-2.05,12.12-3.07,19.76-3.07,2.23,0,4.49.14,6.77.42s4.51.65,6.7,1.12,4.21,1,6.07,1.61,3.49,1.23,4.89,1.88l-1.26,8.52h0Z"/>
    <path class="st0" d="M342.51,441.27c0,9.77-.75,18.08-2.23,24.92-1.49,6.84-3.89,12.45-7.19,16.83-3.31,4.38-7.61,7.56-12.92,9.56s-11.78,3-19.41,3-13.96-1-19.27-3-9.61-5.19-12.92-9.56-5.72-10.01-7.26-16.89c-1.54-6.89-2.3-15.17-2.3-24.85s.74-17.94,2.23-24.78c1.49-6.84,3.91-12.43,7.26-16.75,3.35-4.33,7.68-7.49,12.99-9.49,5.31-2,11.73-3,19.27-3s14.1,1,19.41,3,9.61,5.17,12.92,9.49c3.3,4.33,5.7,9.91,7.19,16.75s2.23,15.1,2.23,24.78h0ZM333.01,441.27c0-8.84-.61-16.17-1.82-21.99-1.21-5.82-3.1-10.45-5.65-13.89-2.56-3.44-5.89-5.86-9.98-7.26-4.1-1.4-9.03-2.09-14.8-2.09s-10.71.7-14.8,2.09c-4.1,1.4-7.42,3.82-9.98,7.26s-4.45,8.08-5.65,13.89c-1.21,5.82-1.81,13.15-1.81,21.99s.6,16.18,1.81,21.99c1.21,5.82,3.12,10.45,5.73,13.89,2.6,3.44,5.96,5.89,10.05,7.33s9.03,2.16,14.8,2.16,10.68-.72,14.73-2.16,7.38-3.89,9.98-7.33c2.6-3.44,4.49-8.07,5.65-13.89,1.16-5.82,1.75-13.15,1.75-21.99h0Z"/>
    <path class="st0" d="M394.31,397.85v95.78h-9.22v-95.78h-32.81l.28-8.94h74.56l.14,8.94h-32.95Z"/>
    <path class="st0" d="M506.57,484.69l-.42,8.94h-60.74v-104.72h9.21v95.78h51.95Z"/>
    <path class="st0" d="M584.06,465.98h-50.4l-9.91,27.65h-9.91l39.79-104.72h10.89l39.79,104.72h-10.33l-9.91-27.65h-.01ZM555.3,406.51l-18.57,51.24h44.4l-18.29-51.24-3.49-10.75h-.42l-3.63,10.75h0Z"/>
    <path class="st0" d="M692.13,493.63l-54.18-80.98-6.14-9.49-.28.14.14,11.31v79.03h-8.38v-104.72h9.08l52.36,79.03,6.14,9.49.28-.14-.28-11.17-.14-77.21h8.24v104.72h-6.84,0Z"/>
    <path class="st0" d="M808.15,440.85c0,9.59-.89,17.73-2.65,24.43-1.77,6.7-4.47,12.15-8.1,16.34s-8.19,7.24-13.68,9.15c-5.49,1.91-11.96,2.86-19.41,2.86h-34.35v-104.72h34.21c7.73,0,14.36.96,19.9,2.86,5.54,1.91,10.1,4.96,13.68,9.15s6.21,9.56,7.89,16.13,2.51,14.5,2.51,23.81h0ZM798.52,440.85c0-8.28-.68-15.17-2.03-20.66-1.35-5.49-3.42-9.89-6.21-13.19-2.79-3.3-6.38-5.65-10.75-7.05-4.38-1.4-9.59-2.09-15.64-2.09h-24.71v86.99h24.85c5.77,0,10.82-.67,15.15-2.02,4.33-1.35,7.91-3.68,10.75-6.98s4.98-7.79,6.42-13.47,2.16-12.85,2.16-21.5v-.03Z"/>
  </g>
</svg>